<svg width="494" height="139" viewBox="0 0 494 139" fill="none" xmlns="http://www.w3.org/2000/svg">
<path d="M58.9241 0.440994H113.736L171.443 138.629H123.579L114.701 114.504H57.1871L48.1161 138.629H0.445082L58.9241 0.440994ZM106.402 86.133L86.1371 31.9H85.7511L65.2931 86.133H106.402ZM182.104 0.440994H272.428C290.699 0.440994 304.981 4.75133 315.274 13.372C325.568 21.864 330.714 33.637 330.714 48.691C330.586 63.6163 325.31 75.325 314.888 83.817C304.595 92.1803 290.313 96.362 272.042 96.362H228.231L228.038 138.629H182.104V0.440994ZM260.269 67.219C267.989 67.219 273.908 65.5463 278.025 62.201C282.271 58.727 284.394 53.9663 284.394 47.919C284.394 42.129 282.271 37.6257 278.025 34.409C273.779 31.1923 267.861 29.584 260.269 29.584H228.038L228.231 67.219H260.269ZM344.694 0.440994H435.018C453.289 0.440994 467.571 4.75133 477.864 13.372C488.157 21.864 493.304 33.637 493.304 48.691C493.175 63.6163 487.9 75.325 477.478 83.817C467.185 92.1803 452.903 96.362 434.632 96.362H390.821L390.628 138.629H344.694V0.440994ZM422.859 67.219C430.579 67.219 436.498 65.5463 440.615 62.201C444.861 58.727 446.984 53.9663 446.984 47.919C446.984 42.129 444.861 37.6257 440.615 34.409C436.369 31.1923 430.45 29.584 422.859 29.584H390.628L390.821 67.219H422.859Z" fill="white"/>
</svg>
