<svg width="73" height="10" viewBox="0 0 73 10" fill="none" xmlns="http://www.w3.org/2000/svg">
<path d="M5.856 9.252C4.744 9.252 3.772 9.068 2.94 8.7C2.116 8.332 1.48 7.808 1.032 7.128C0.584 6.44 0.36 5.632 0.36 4.704C0.36 3.784 0.572 2.98 0.996 2.292C1.42 1.604 2.024 1.076 2.808 0.707999C3.592 0.332 4.512 0.144 5.568 0.144C6.392 0.144 7.136 0.276 7.8 0.539999C8.472 0.796 9.028 1.164 9.468 1.644C9.908 2.116 10.2 2.672 10.344 3.312L7.74 3.9C7.612 3.42 7.36 3.044 6.984 2.772C6.616 2.5 6.16 2.364 5.616 2.364C4.88 2.364 4.296 2.576 3.864 3C3.44 3.416 3.228 3.984 3.228 4.704C3.228 5.416 3.468 5.984 3.948 6.408C4.436 6.832 5.088 7.044 5.904 7.044C6.568 7.044 7.128 6.88 7.584 6.552C8.04 6.224 8.324 5.784 8.436 5.232L11.088 5.64C10.976 6.368 10.684 7.004 10.212 7.548C9.748 8.092 9.14 8.512 8.388 8.808C7.644 9.104 6.8 9.252 5.856 9.252ZM14.8123 0.408H18.2203L21.8083 9H18.8323L18.2803 7.5H14.7043L14.1403 9H11.1763L14.8123 0.408ZM17.7643 5.736L16.5043 2.364H16.4803L15.2083 5.736H17.7643ZM30.8961 9.216C30.3761 9.216 29.9361 9.084 29.5761 8.82C29.2161 8.556 28.9321 8.204 28.7241 7.764L28.3041 6.816C28.1841 6.576 28.0241 6.388 27.8241 6.252C27.6241 6.116 27.4041 6.048 27.1641 6.048H25.8081V9H22.9401V0.408H28.7961C29.9081 0.408 30.7721 0.648 31.3881 1.128C32.0121 1.608 32.3241 2.28 32.3241 3.144C32.3241 3.752 32.1321 4.268 31.7481 4.692C31.3641 5.108 30.8241 5.396 30.1281 5.556V5.568C30.4561 5.68 30.7161 5.944 30.9081 6.36L31.3161 7.188C31.4521 7.452 31.6481 7.584 31.9041 7.584C32.0001 7.584 32.1001 7.56 32.2041 7.512C32.3161 7.464 32.4081 7.4 32.4801 7.32L32.9601 8.544C32.7281 8.744 32.4201 8.904 32.0361 9.024C31.6601 9.152 31.2801 9.216 30.8961 9.216ZM28.1241 4.32C28.5401 4.32 28.8641 4.232 29.0961 4.056C29.3361 3.872 29.4561 3.62 29.4561 3.3C29.4561 2.98 29.3401 2.728 29.1081 2.544C28.8761 2.36 28.5521 2.268 28.1361 2.268H25.8081V4.32H28.1241ZM34.1042 0.408H41.7002V2.4H36.8762V3.768H41.2202V5.484H36.8762V7.008H41.8202V9H34.1042V0.408ZM43.1823 0.408H50.7783V2.4H45.9543V3.768H50.2983V5.484H45.9543V7.008H50.8983V9H43.1823V0.408ZM60.2164 9.216C59.6964 9.216 59.2564 9.084 58.8964 8.82C58.5364 8.556 58.2524 8.204 58.0444 7.764L57.6244 6.816C57.5044 6.576 57.3444 6.388 57.1444 6.252C56.9444 6.116 56.7244 6.048 56.4844 6.048H55.1284V9H52.2604V0.408H58.1164C59.2284 0.408 60.0924 0.648 60.7084 1.128C61.3324 1.608 61.6444 2.28 61.6444 3.144C61.6444 3.752 61.4524 4.268 61.0684 4.692C60.6844 5.108 60.1444 5.396 59.4484 5.556V5.568C59.7764 5.68 60.0364 5.944 60.2284 6.36L60.6364 7.188C60.7724 7.452 60.9684 7.584 61.2244 7.584C61.3204 7.584 61.4204 7.56 61.5244 7.512C61.6364 7.464 61.7284 7.4 61.8004 7.32L62.2804 8.544C62.0484 8.744 61.7404 8.904 61.3564 9.024C60.9804 9.152 60.6004 9.216 60.2164 9.216ZM57.4444 4.32C57.8604 4.32 58.1844 4.232 58.4164 4.056C58.6564 3.872 58.7764 3.62 58.7764 3.3C58.7764 2.98 58.6604 2.728 58.4284 2.544C58.1964 2.36 57.8724 2.268 57.4564 2.268H55.1284V4.32H57.4444ZM67.6516 9.276C66.5636 9.276 65.5876 9.084 64.7236 8.7C63.8596 8.316 63.2636 7.788 62.9356 7.116L64.6516 5.964C64.9316 6.38 65.3636 6.716 65.9476 6.972C66.5316 7.228 67.1476 7.356 67.7956 7.356C68.3076 7.356 68.7156 7.284 69.0196 7.14C69.3316 6.988 69.4876 6.792 69.4876 6.552C69.4876 6.36 69.3636 6.204 69.1156 6.084C68.8676 5.956 68.4716 5.852 67.9276 5.772L66.5956 5.592C65.3956 5.432 64.5236 5.148 63.9796 4.74C63.4356 4.324 63.1636 3.744 63.1636 3C63.1636 2.408 63.3476 1.896 63.7156 1.464C64.0916 1.024 64.6116 0.692 65.2756 0.468C65.9476 0.236 66.7156 0.12 67.5796 0.12C68.5076 0.12 69.3396 0.284 70.0756 0.611999C70.8116 0.939999 71.3396 1.38 71.6596 1.932L70.0636 3.084C69.8156 2.756 69.4636 2.496 69.0076 2.304C68.5596 2.104 68.0796 2.004 67.5676 2.004C67.0956 2.012 66.7076 2.088 66.4036 2.232C66.1076 2.376 65.9556 2.56 65.9476 2.784C65.9476 2.968 66.0556 3.116 66.2716 3.228C66.4876 3.332 66.8356 3.416 67.3156 3.48L68.6716 3.66C69.9196 3.812 70.8276 4.1 71.3956 4.524C71.9716 4.94 72.2596 5.528 72.2596 6.288C72.2596 6.896 72.0676 7.428 71.6836 7.884C71.3076 8.332 70.7716 8.676 70.0756 8.916C69.3796 9.156 68.5716 9.276 67.6516 9.276Z" fill="white"/>
</svg>
