<svg width="657" height="148" viewBox="0 0 657 148" fill="none" xmlns="http://www.w3.org/2000/svg">
<path d="M89.1996 147.47C71.315 147.47 55.682 144.511 42.3006 138.592C29.048 132.674 18.819 124.246 11.6136 113.309C4.40829 102.244 0.805625 89.2487 0.805625 74.3234C0.805625 59.5267 4.21529 46.5957 11.0346 35.5304C17.854 24.465 27.5683 15.973 40.1776 10.0544C52.787 4.00705 67.5836 0.983382 84.5676 0.983382C97.8203 0.983382 109.786 3.10638 120.466 7.35238C131.274 11.4697 140.216 17.3884 147.293 25.1084C154.369 32.6997 159.066 41.6421 161.382 51.9354L119.501 61.3924C117.442 53.6724 113.389 47.6251 107.342 43.2504C101.423 38.8757 94.089 36.6884 85.3396 36.6884C73.5023 36.6884 64.1096 40.0981 57.1616 46.9174C50.3423 53.6081 46.9326 62.7434 46.9326 74.3234C46.9326 85.7747 50.7926 94.9101 58.5126 101.729C66.3613 108.549 76.8476 111.958 89.9716 111.958C100.651 111.958 109.658 109.321 116.992 104.045C124.326 98.7701 128.893 91.6934 130.695 82.8154L173.348 89.3774C171.546 101.086 166.85 111.315 159.259 120.064C151.796 128.814 142.017 135.569 129.923 140.329C117.957 145.09 104.382 147.47 89.1996 147.47ZM225.706 5.22938H280.518L338.225 143.417H290.361L281.483 119.292H223.969L214.898 143.417H167.227L225.706 5.22938ZM273.184 90.9214L252.919 36.6884H252.533L232.075 90.9214H273.184ZM414.798 147.856C397.3 147.856 381.602 144.768 367.706 138.592C353.81 132.416 344.225 123.924 338.949 113.116L366.548 94.5884C371.052 101.279 378 106.683 387.392 110.8C396.785 114.918 406.692 116.976 417.114 116.976C425.349 116.976 431.911 115.818 436.8 113.502C441.818 111.058 444.327 107.905 444.327 104.045C444.327 100.957 442.333 98.4484 438.344 96.5184C434.356 94.4597 427.987 92.7871 419.237 91.5004L397.814 88.6054C378.514 86.0321 364.49 81.4644 355.74 74.9024C346.991 68.2117 342.616 58.8834 342.616 46.9174C342.616 37.3961 345.576 29.1614 351.494 22.2134C357.542 15.1367 365.905 9.79705 376.584 6.19438C387.392 2.46305 399.744 0.597387 413.64 0.597387C428.566 0.597387 441.947 3.23505 453.784 8.51038C465.622 13.7857 474.114 20.8624 479.26 29.7404L453.591 48.2684C449.603 42.993 443.941 38.8114 436.607 35.7234C429.402 32.5067 421.682 30.8984 413.447 30.8984C405.856 31.0271 399.616 32.2494 394.726 34.5654C389.966 36.8814 387.521 39.8407 387.392 43.4434C387.392 46.4027 389.129 48.783 392.603 50.5844C396.077 52.2571 401.674 53.6081 409.394 54.6374L431.203 57.5324C451.275 59.9771 465.879 64.6091 475.014 71.4284C484.278 78.1191 488.91 87.5761 488.91 99.7994C488.91 109.578 485.822 118.134 479.646 125.468C473.599 132.674 464.978 138.206 453.784 142.066C442.59 145.926 429.595 147.856 414.798 147.856ZM502.617 5.22938H548.744V55.0234H609.925V5.22938H656.052V143.417H609.925V88.4124H548.744V143.417H502.617V5.22938Z" fill="white"/>
</svg>
