<svg width="88" height="10" viewBox="0 0 88 10" fill="none" xmlns="http://www.w3.org/2000/svg">
<path d="M5.856 9.252C4.744 9.252 3.772 9.068 2.94 8.7C2.116 8.332 1.48 7.808 1.032 7.128C0.584 6.44 0.36 5.632 0.36 4.704C0.36 3.784 0.572 2.98 0.996 2.292C1.42 1.604 2.024 1.076 2.808 0.707999C3.592 0.332 4.512 0.144 5.568 0.144C6.392 0.144 7.136 0.276 7.8 0.539999C8.472 0.796 9.028 1.164 9.468 1.644C9.908 2.116 10.2 2.672 10.344 3.312L7.74 3.9C7.612 3.42 7.36 3.044 6.984 2.772C6.616 2.5 6.16 2.364 5.616 2.364C4.88 2.364 4.296 2.576 3.864 3C3.44 3.416 3.228 3.984 3.228 4.704C3.228 5.416 3.468 5.984 3.948 6.408C4.436 6.832 5.088 7.044 5.904 7.044C6.568 7.044 7.128 6.88 7.584 6.552C8.04 6.224 8.324 5.784 8.436 5.232L11.088 5.64C10.976 6.368 10.684 7.004 10.212 7.548C9.748 8.092 9.14 8.512 8.388 8.808C7.644 9.104 6.8 9.252 5.856 9.252ZM17.7132 9.3C16.6092 9.3 15.6332 9.112 14.7852 8.736C13.9452 8.352 13.2932 7.812 12.8292 7.116C12.3732 6.42 12.1452 5.616 12.1452 4.704C12.1452 3.792 12.3732 2.988 12.8292 2.292C13.2932 1.596 13.9452 1.06 14.7852 0.684C15.6332 0.299999 16.6092 0.107999 17.7132 0.107999C18.8172 0.107999 19.7892 0.299999 20.6292 0.684C21.4692 1.06 22.1172 1.596 22.5732 2.292C23.0372 2.988 23.2692 3.792 23.2692 4.704C23.2692 5.616 23.0372 6.42 22.5732 7.116C22.1172 7.812 21.4692 8.352 20.6292 8.736C19.7892 9.112 18.8172 9.3 17.7132 9.3ZM17.7132 7.092C18.2492 7.092 18.7172 6.992 19.1172 6.792C19.5252 6.592 19.8412 6.312 20.0652 5.952C20.2892 5.592 20.4012 5.176 20.4012 4.704C20.4012 4.232 20.2892 3.816 20.0652 3.456C19.8412 3.088 19.5252 2.808 19.1172 2.616C18.7172 2.416 18.2492 2.316 17.7132 2.316C17.1772 2.316 16.7052 2.416 16.2972 2.616C15.8892 2.808 15.5732 3.088 15.3492 3.456C15.1252 3.816 15.0132 4.232 15.0132 4.704C15.0132 5.176 15.1252 5.592 15.3492 5.952C15.5732 6.312 15.8892 6.592 16.2972 6.792C16.7052 6.992 17.1772 7.092 17.7132 7.092ZM24.7448 0.408H29.6888C31.2808 0.408 32.5008 0.78 33.3488 1.524C34.2048 2.26 34.6328 3.32 34.6328 4.704C34.6328 6.088 34.2048 7.152 33.3488 7.896C32.5008 8.632 31.2808 9 29.6888 9H24.7448V0.408ZM29.4608 6.924C30.2208 6.924 30.8008 6.732 31.2008 6.348C31.6088 5.964 31.8128 5.416 31.8128 4.704C31.8128 3.992 31.6088 3.444 31.2008 3.06C30.8008 2.676 30.2208 2.484 29.4608 2.484H27.5288V6.924H29.4608ZM36.1081 0.408H43.7041V2.4H38.8801V3.768H43.2241V5.484H38.8801V7.008H43.8241V9H36.1081V0.408ZM45.1862 0.408H51.1382C52.1622 0.408 52.9542 0.616 53.5142 1.032C54.0742 1.44 54.3542 2.02 54.3542 2.772C54.3542 3.22 54.2262 3.604 53.9702 3.924C53.7222 4.244 53.3702 4.472 52.9142 4.608V4.632C53.4342 4.752 53.8342 4.988 54.1142 5.34C54.4022 5.684 54.5462 6.112 54.5462 6.624C54.5462 7.376 54.2662 7.96 53.7062 8.376C53.1462 8.792 52.3542 9 51.3302 9H45.1862V0.408ZM50.4062 3.876C50.7502 3.876 51.0142 3.804 51.1982 3.66C51.3902 3.508 51.4862 3.296 51.4862 3.024C51.4862 2.76 51.3902 2.556 51.1982 2.412C51.0142 2.268 50.7502 2.196 50.4062 2.196H48.0542V3.876H50.4062ZM50.5262 7.212C50.8942 7.212 51.1782 7.136 51.3782 6.984C51.5782 6.832 51.6782 6.616 51.6782 6.336C51.6782 6.048 51.5782 5.824 51.3782 5.664C51.1782 5.504 50.8942 5.424 50.5262 5.424H48.0542V7.212H50.5262ZM55.9284 0.408H58.7964V6.744H62.9844V9H55.9284V0.408ZM69.3499 9.3C68.2459 9.3 67.2699 9.112 66.4219 8.736C65.5819 8.352 64.9299 7.812 64.4659 7.116C64.0099 6.42 63.7819 5.616 63.7819 4.704C63.7819 3.792 64.0099 2.988 64.4659 2.292C64.9299 1.596 65.5819 1.06 66.4219 0.684C67.2699 0.299999 68.2459 0.107999 69.3499 0.107999C70.4539 0.107999 71.4259 0.299999 72.2659 0.684C73.1059 1.06 73.7539 1.596 74.2099 2.292C74.6739 2.988 74.9059 3.792 74.9059 4.704C74.9059 5.616 74.6739 6.42 74.2099 7.116C73.7539 7.812 73.1059 8.352 72.2659 8.736C71.4259 9.112 70.4539 9.3 69.3499 9.3ZM69.3499 7.092C69.8859 7.092 70.3539 6.992 70.7539 6.792C71.1619 6.592 71.4779 6.312 71.7019 5.952C71.9259 5.592 72.0379 5.176 72.0379 4.704C72.0379 4.232 71.9259 3.816 71.7019 3.456C71.4779 3.088 71.1619 2.808 70.7539 2.616C70.3539 2.416 69.8859 2.316 69.3499 2.316C68.8139 2.316 68.3419 2.416 67.9339 2.616C67.5259 2.808 67.2099 3.088 66.9859 3.456C66.7619 3.816 66.6499 4.232 66.6499 4.704C66.6499 5.176 66.7619 5.592 66.9859 5.952C67.2099 6.312 67.5259 6.592 67.9339 6.792C68.3419 6.992 68.8139 7.092 69.3499 7.092ZM80.9775 9.228C80.0255 9.228 79.1815 9.044 78.4455 8.676C77.7095 8.3 77.1375 7.776 76.7295 7.104C76.3295 6.432 76.1295 5.66 76.1295 4.788C76.1295 3.876 76.3535 3.068 76.8015 2.364C77.2495 1.66 77.8775 1.116 78.6855 0.732C79.4935 0.34 80.4255 0.144 81.4815 0.144C82.2575 0.144 82.9735 0.264 83.6295 0.504C84.2855 0.744 84.8255 1.08 85.2495 1.512C85.6815 1.944 85.9615 2.44 86.0895 3L83.4255 3.48C83.3215 3.136 83.0855 2.856 82.7175 2.64C82.3495 2.424 81.9295 2.316 81.4575 2.316C80.9775 2.316 80.5495 2.42 80.1735 2.628C79.7975 2.828 79.5055 3.112 79.2975 3.48C79.0975 3.848 78.9975 4.272 78.9975 4.752C78.9975 5.224 79.1135 5.644 79.3455 6.012C79.5855 6.38 79.9175 6.668 80.3415 6.876C80.7735 7.076 81.2655 7.176 81.8175 7.176C82.2575 7.176 82.6575 7.108 83.0175 6.972C83.3775 6.836 83.6655 6.648 83.8815 6.408C84.1055 6.168 84.2295 5.896 84.2535 5.592H80.3895V4.044H87.0255V9H84.8655L84.6735 7.524H84.6615C84.3415 8.052 83.8495 8.468 83.1855 8.772C82.5215 9.076 81.7855 9.228 80.9775 9.228Z" fill="white"/>
</svg>
