<svg width="49" height="10" viewBox="0 0 49 10" fill="none" xmlns="http://www.w3.org/2000/svg">
<path d="M0.612 0.408H3.48V6.744H7.668V9H0.612V0.408ZM8.987 0.408H16.583V2.4H11.759V3.768H16.103V5.484H11.759V7.008H16.703V9H8.987V0.408ZM22.6025 9.228C21.6505 9.228 20.8065 9.044 20.0705 8.676C19.3345 8.3 18.7625 7.776 18.3545 7.104C17.9545 6.432 17.7545 5.66 17.7545 4.788C17.7545 3.876 17.9785 3.068 18.4265 2.364C18.8745 1.66 19.5025 1.116 20.3105 0.732C21.1185 0.34 22.0505 0.144 23.1065 0.144C23.8825 0.144 24.5985 0.264 25.2545 0.504C25.9105 0.744 26.4505 1.08 26.8745 1.512C27.3065 1.944 27.5865 2.44 27.7145 3L25.0505 3.48C24.9465 3.136 24.7105 2.856 24.3425 2.64C23.9745 2.424 23.5545 2.316 23.0825 2.316C22.6025 2.316 22.1745 2.42 21.7985 2.628C21.4225 2.828 21.1305 3.112 20.9225 3.48C20.7225 3.848 20.6225 4.272 20.6225 4.752C20.6225 5.224 20.7385 5.644 20.9705 6.012C21.2105 6.38 21.5425 6.668 21.9665 6.876C22.3985 7.076 22.8905 7.176 23.4425 7.176C23.8825 7.176 24.2825 7.108 24.6425 6.972C25.0025 6.836 25.2905 6.648 25.5065 6.408C25.7305 6.168 25.8545 5.896 25.8785 5.592H22.0145V4.044H28.6505V9H26.4905L26.2985 7.524H26.2865C25.9665 8.052 25.4745 8.468 24.8105 8.772C24.1465 9.076 23.4105 9.228 22.6025 9.228ZM33.2498 0.408H36.6578L40.2458 9H37.2698L36.7178 7.5H33.1418L32.5778 9H29.6138L33.2498 0.408ZM36.2018 5.736L34.9418 2.364H34.9178L33.6458 5.736H36.2018ZM41.3776 0.408H44.2456V6.744H48.4336V9H41.3776V0.408Z" fill="white"/>
</svg>
