<svg width="75" height="10" viewBox="0 0 75 10" fill="none" xmlns="http://www.w3.org/2000/svg">
<path d="M0.612 0.408H3.48V6.744H7.668V9H0.612V0.408ZM8.987 0.408H11.855V9H8.987V0.408ZM18.8208 9.252C17.7088 9.252 16.7368 9.068 15.9048 8.7C15.0808 8.332 14.4448 7.808 13.9968 7.128C13.5488 6.44 13.3248 5.632 13.3248 4.704C13.3248 3.784 13.5368 2.98 13.9608 2.292C14.3848 1.604 14.9888 1.076 15.7728 0.707999C16.5568 0.332 17.4768 0.144 18.5328 0.144C19.3568 0.144 20.1008 0.276 20.7648 0.539999C21.4368 0.796 21.9928 1.164 22.4328 1.644C22.8728 2.116 23.1648 2.672 23.3088 3.312L20.7048 3.9C20.5768 3.42 20.3248 3.044 19.9488 2.772C19.5808 2.5 19.1248 2.364 18.5808 2.364C17.8448 2.364 17.2608 2.576 16.8288 3C16.4048 3.416 16.1928 3.984 16.1928 4.704C16.1928 5.416 16.4328 5.984 16.9128 6.408C17.4008 6.832 18.0528 7.044 18.8688 7.044C19.5328 7.044 20.0928 6.88 20.5488 6.552C21.0048 6.224 21.2888 5.784 21.4008 5.232L24.0528 5.64C23.9408 6.368 23.6488 7.004 23.1768 7.548C22.7128 8.092 22.1048 8.512 21.3528 8.808C20.6088 9.104 19.7648 9.252 18.8208 9.252ZM25.362 0.408H32.958V2.4H28.134V3.768H32.478V5.484H28.134V7.008H33.078V9H25.362V0.408ZM34.4401 0.408H37.8001L41.6281 5.964H41.6401V0.408H44.3401V9H40.9801L37.1521 3.408H37.1401V9H34.4401V0.408ZM50.4172 9.276C49.3292 9.276 48.3532 9.084 47.4892 8.7C46.6252 8.316 46.0292 7.788 45.7012 7.116L47.4172 5.964C47.6972 6.38 48.1292 6.716 48.7132 6.972C49.2972 7.228 49.9132 7.356 50.5612 7.356C51.0732 7.356 51.4812 7.284 51.7852 7.14C52.0972 6.988 52.2532 6.792 52.2532 6.552C52.2532 6.36 52.1292 6.204 51.8812 6.084C51.6332 5.956 51.2372 5.852 50.6932 5.772L49.3612 5.592C48.1612 5.432 47.2892 5.148 46.7452 4.74C46.2012 4.324 45.9292 3.744 45.9292 3C45.9292 2.408 46.1132 1.896 46.4812 1.464C46.8572 1.024 47.3772 0.692 48.0412 0.468C48.7132 0.236 49.4812 0.12 50.3452 0.12C51.2732 0.12 52.1052 0.284 52.8412 0.611999C53.5772 0.939999 54.1052 1.38 54.4252 1.932L52.8292 3.084C52.5812 2.756 52.2292 2.496 51.7732 2.304C51.3252 2.104 50.8452 2.004 50.3332 2.004C49.8612 2.012 49.4732 2.088 49.1692 2.232C48.8732 2.376 48.7212 2.56 48.7132 2.784C48.7132 2.968 48.8212 3.116 49.0372 3.228C49.2532 3.332 49.6012 3.416 50.0812 3.48L51.4372 3.66C52.6852 3.812 53.5932 4.1 54.1612 4.524C54.7372 4.94 55.0252 5.528 55.0252 6.288C55.0252 6.896 54.8332 7.428 54.4492 7.884C54.0732 8.332 53.5372 8.676 52.8412 8.916C52.1452 9.156 51.3372 9.276 50.4172 9.276ZM56.3464 0.408H63.9424V2.4H59.1184V3.768H63.4624V5.484H59.1184V7.008H64.0624V9H56.3464V0.408ZM69.7805 9.276C68.6925 9.276 67.7165 9.084 66.8525 8.7C65.9885 8.316 65.3925 7.788 65.0645 7.116L66.7805 5.964C67.0605 6.38 67.4925 6.716 68.0765 6.972C68.6605 7.228 69.2765 7.356 69.9245 7.356C70.4365 7.356 70.8445 7.284 71.1485 7.14C71.4605 6.988 71.6165 6.792 71.6165 6.552C71.6165 6.36 71.4925 6.204 71.2445 6.084C70.9965 5.956 70.6005 5.852 70.0565 5.772L68.7245 5.592C67.5245 5.432 66.6525 5.148 66.1085 4.74C65.5645 4.324 65.2925 3.744 65.2925 3C65.2925 2.408 65.4765 1.896 65.8445 1.464C66.2205 1.024 66.7405 0.692 67.4045 0.468C68.0765 0.236 68.8445 0.12 69.7085 0.12C70.6365 0.12 71.4685 0.284 72.2045 0.611999C72.9405 0.939999 73.4685 1.38 73.7885 1.932L72.1925 3.084C71.9445 2.756 71.5925 2.496 71.1365 2.304C70.6885 2.104 70.2085 2.004 69.6965 2.004C69.2245 2.012 68.8365 2.088 68.5325 2.232C68.2365 2.376 68.0845 2.56 68.0765 2.784C68.0765 2.968 68.1845 3.116 68.4005 3.228C68.6165 3.332 68.9645 3.416 69.4445 3.48L70.8005 3.66C72.0485 3.812 72.9565 4.1 73.5245 4.524C74.1005 4.94 74.3885 5.528 74.3885 6.288C74.3885 6.896 74.1965 7.428 73.8125 7.884C73.4365 8.332 72.9005 8.676 72.2045 8.916C71.5085 9.156 70.7005 9.276 69.7805 9.276Z" fill="white"/>
</svg>
