<svg width="766" height="18" viewBox="0 0 766 18" fill="none" xmlns="http://www.w3.org/2000/svg">
<g clip-path="url(#clip0_114_16)">
<path d="M4.968 12.276C3.88 12.276 2.904 12.084 2.04 11.7C1.176 11.316 0.58 10.788 0.252 10.116L1.968 8.964C2.248 9.38 2.68 9.716 3.264 9.972C3.848 10.228 4.464 10.356 5.112 10.356C5.624 10.356 6.032 10.284 6.336 10.14C6.648 9.988 6.804 9.792 6.804 9.552C6.804 9.36 6.68 9.204 6.432 9.084C6.184 8.956 5.788 8.852 5.244 8.772L3.912 8.592C2.712 8.432 1.84 8.148 1.296 7.74C0.752 7.324 0.48 6.744 0.48 6C0.48 5.408 0.664 4.896 1.032 4.464C1.408 4.024 1.928 3.692 2.592 3.468C3.264 3.236 4.032 3.12 4.896 3.12C5.824 3.12 6.656 3.284 7.392 3.612C8.128 3.94 8.656 4.38 8.976 4.932L7.38 6.084C7.132 5.756 6.78 5.496 6.324 5.304C5.876 5.104 5.396 5.004 4.884 5.004C4.412 5.012 4.024 5.088 3.72 5.232C3.424 5.376 3.272 5.56 3.264 5.784C3.264 5.968 3.372 6.116 3.588 6.228C3.804 6.332 4.152 6.416 4.632 6.48L5.988 6.66C7.236 6.812 8.144 7.1 8.712 7.524C9.288 7.94 9.576 8.528 9.576 9.288C9.576 9.896 9.384 10.428 9 10.884C8.624 11.332 8.088 11.676 7.392 11.916C6.696 12.156 5.888 12.276 4.968 12.276ZM10.8972 3.408H13.7652V12H10.8972V3.408ZM20.083 12.228C19.131 12.228 18.287 12.044 17.551 11.676C16.815 11.3 16.243 10.776 15.835 10.104C15.435 9.432 15.235 8.66 15.235 7.788C15.235 6.876 15.459 6.068 15.907 5.364C16.355 4.66 16.983 4.116 17.791 3.732C18.599 3.34 19.531 3.144 20.587 3.144C21.363 3.144 22.079 3.264 22.735 3.504C23.391 3.744 23.931 4.08 24.355 4.512C24.787 4.944 25.067 5.44 25.195 6L22.531 6.48C22.427 6.136 22.191 5.856 21.823 5.64C21.455 5.424 21.035 5.316 20.563 5.316C20.083 5.316 19.655 5.42 19.279 5.628C18.903 5.828 18.611 6.112 18.403 6.48C18.203 6.848 18.103 7.272 18.103 7.752C18.103 8.224 18.219 8.644 18.451 9.012C18.691 9.38 19.023 9.668 19.447 9.876C19.879 10.076 20.371 10.176 20.923 10.176C21.363 10.176 21.763 10.108 22.123 9.972C22.483 9.836 22.771 9.648 22.987 9.408C23.211 9.168 23.335 8.896 23.359 8.592H19.495V7.044H26.131V12H23.971L23.779 10.524H23.767C23.447 11.052 22.955 11.468 22.291 11.772C21.627 12.076 20.891 12.228 20.083 12.228ZM27.6823 3.408H31.0423L34.8703 8.964H34.8823V3.408H37.5823V12H34.2223L30.3943 6.408H30.3823V12H27.6823V3.408ZM42.3698 3.408H45.2378V12H42.3698V3.408ZM46.9597 3.408H50.3197L54.1477 8.964H54.1597V3.408H56.8597V12H53.4997L49.6717 6.408H49.6597V12H46.9597V3.408Z" fill="white"/>
<path d="M78.612 3.408H81.48V9.744H85.668V12H78.612V3.408ZM86.987 3.408H94.583V5.4H89.759V6.768H94.103V8.484H89.759V10.008H94.703V12H86.987V3.408ZM100.603 12.228C99.6505 12.228 98.8065 12.044 98.0705 11.676C97.3345 11.3 96.7625 10.776 96.3545 10.104C95.9545 9.432 95.7545 8.66 95.7545 7.788C95.7545 6.876 95.9785 6.068 96.4265 5.364C96.8745 4.66 97.5025 4.116 98.3105 3.732C99.1185 3.34 100.051 3.144 101.107 3.144C101.883 3.144 102.599 3.264 103.255 3.504C103.911 3.744 104.451 4.08 104.875 4.512C105.307 4.944 105.587 5.44 105.715 6L103.051 6.48C102.947 6.136 102.711 5.856 102.343 5.64C101.975 5.424 101.555 5.316 101.083 5.316C100.603 5.316 100.175 5.42 99.7985 5.628C99.4225 5.828 99.1305 6.112 98.9225 6.48C98.7225 6.848 98.6225 7.272 98.6225 7.752C98.6225 8.224 98.7385 8.644 98.9705 9.012C99.2105 9.38 99.5425 9.668 99.9665 9.876C100.399 10.076 100.891 10.176 101.443 10.176C101.883 10.176 102.283 10.108 102.643 9.972C103.003 9.836 103.291 9.648 103.507 9.408C103.731 9.168 103.855 8.896 103.879 8.592H100.015V7.044H106.651V12H104.491L104.299 10.524H104.287C103.967 11.052 103.475 11.468 102.811 11.772C102.147 12.076 101.411 12.228 100.603 12.228ZM111.25 3.408H114.658L118.246 12H115.27L114.718 10.5H111.142L110.578 12H107.614L111.25 3.408ZM114.202 8.736L112.942 5.364H112.918L111.646 8.736H114.202ZM119.378 3.408H122.246V9.744H126.434V12H119.378V3.408Z" fill="white"/>
<path d="M147.612 3.408H150.48V9.744H154.668V12H147.612V3.408ZM155.987 3.408H158.855V12H155.987V3.408ZM165.821 12.252C164.709 12.252 163.737 12.068 162.905 11.7C162.081 11.332 161.445 10.808 160.997 10.128C160.549 9.44 160.325 8.632 160.325 7.704C160.325 6.784 160.537 5.98 160.961 5.292C161.385 4.604 161.989 4.076 162.773 3.708C163.557 3.332 164.477 3.144 165.533 3.144C166.357 3.144 167.101 3.276 167.765 3.54C168.437 3.796 168.993 4.164 169.433 4.644C169.873 5.116 170.165 5.672 170.309 6.312L167.705 6.9C167.577 6.42 167.325 6.044 166.949 5.772C166.581 5.5 166.125 5.364 165.581 5.364C164.845 5.364 164.261 5.576 163.829 6C163.405 6.416 163.193 6.984 163.193 7.704C163.193 8.416 163.433 8.984 163.913 9.408C164.401 9.832 165.053 10.044 165.869 10.044C166.533 10.044 167.093 9.88 167.549 9.552C168.005 9.224 168.289 8.784 168.401 8.232L171.053 8.64C170.941 9.368 170.649 10.004 170.177 10.548C169.713 11.092 169.105 11.512 168.353 11.808C167.609 12.104 166.765 12.252 165.821 12.252ZM172.362 3.408H179.958V5.4H175.134V6.768H179.478V8.484H175.134V10.008H180.078V12H172.362V3.408ZM181.44 3.408H184.8L188.628 8.964H188.64V3.408H191.34V12H187.98L184.152 6.408H184.14V12H181.44V3.408ZM197.417 12.276C196.329 12.276 195.353 12.084 194.489 11.7C193.625 11.316 193.029 10.788 192.701 10.116L194.417 8.964C194.697 9.38 195.129 9.716 195.713 9.972C196.297 10.228 196.913 10.356 197.561 10.356C198.073 10.356 198.481 10.284 198.785 10.14C199.097 9.988 199.253 9.792 199.253 9.552C199.253 9.36 199.129 9.204 198.881 9.084C198.633 8.956 198.237 8.852 197.693 8.772L196.361 8.592C195.161 8.432 194.289 8.148 193.745 7.74C193.201 7.324 192.929 6.744 192.929 6C192.929 5.408 193.113 4.896 193.481 4.464C193.857 4.024 194.377 3.692 195.041 3.468C195.713 3.236 196.481 3.12 197.345 3.12C198.273 3.12 199.105 3.284 199.841 3.612C200.577 3.94 201.105 4.38 201.425 4.932L199.829 6.084C199.581 5.756 199.229 5.496 198.773 5.304C198.325 5.104 197.845 5.004 197.333 5.004C196.861 5.012 196.473 5.088 196.169 5.232C195.873 5.376 195.721 5.56 195.713 5.784C195.713 5.968 195.821 6.116 196.037 6.228C196.253 6.332 196.601 6.416 197.081 6.48L198.437 6.66C199.685 6.812 200.593 7.1 201.161 7.524C201.737 7.94 202.025 8.528 202.025 9.288C202.025 9.896 201.833 10.428 201.449 10.884C201.073 11.332 200.537 11.676 199.841 11.916C199.145 12.156 198.337 12.276 197.417 12.276ZM203.346 3.408H210.942V5.4H206.118V6.768H210.462V8.484H206.118V10.008H211.062V12H203.346V3.408ZM216.781 12.276C215.693 12.276 214.717 12.084 213.853 11.7C212.989 11.316 212.393 10.788 212.065 10.116L213.781 8.964C214.061 9.38 214.493 9.716 215.077 9.972C215.661 10.228 216.277 10.356 216.925 10.356C217.437 10.356 217.845 10.284 218.148 10.14C218.461 9.988 218.617 9.792 218.617 9.552C218.617 9.36 218.493 9.204 218.245 9.084C217.997 8.956 217.6 8.852 217.057 8.772L215.725 8.592C214.525 8.432 213.653 8.148 213.109 7.74C212.565 7.324 212.293 6.744 212.293 6C212.293 5.408 212.477 4.896 212.845 4.464C213.221 4.024 213.741 3.692 214.405 3.468C215.077 3.236 215.845 3.12 216.709 3.12C217.637 3.12 218.469 3.284 219.205 3.612C219.941 3.94 220.469 4.38 220.789 4.932L219.193 6.084C218.945 5.756 218.593 5.496 218.137 5.304C217.689 5.104 217.209 5.004 216.697 5.004C216.225 5.012 215.837 5.088 215.533 5.232C215.237 5.376 215.085 5.56 215.077 5.784C215.077 5.968 215.185 6.116 215.401 6.228C215.617 6.332 215.965 6.416 216.445 6.48L217.801 6.66C219.049 6.812 219.957 7.1 220.525 7.524C221.101 7.94 221.389 8.528 221.389 9.288C221.389 9.896 221.197 10.428 220.813 10.884C220.437 11.332 219.901 11.676 219.205 11.916C218.509 12.156 217.701 12.276 216.781 12.276Z" fill="white"/>
<path d="M246.968 12.276C245.88 12.276 244.904 12.084 244.04 11.7C243.176 11.316 242.58 10.788 242.252 10.116L243.968 8.964C244.248 9.38 244.68 9.716 245.264 9.972C245.848 10.228 246.464 10.356 247.112 10.356C247.624 10.356 248.032 10.284 248.336 10.14C248.648 9.988 248.804 9.792 248.804 9.552C248.804 9.36 248.68 9.204 248.432 9.084C248.184 8.956 247.788 8.852 247.244 8.772L245.912 8.592C244.712 8.432 243.84 8.148 243.296 7.74C242.752 7.324 242.48 6.744 242.48 6C242.48 5.408 242.664 4.896 243.032 4.464C243.408 4.024 243.928 3.692 244.592 3.468C245.264 3.236 246.032 3.12 246.896 3.12C247.824 3.12 248.656 3.284 249.392 3.612C250.128 3.94 250.656 4.38 250.976 4.932L249.38 6.084C249.132 5.756 248.78 5.496 248.324 5.304C247.876 5.104 247.396 5.004 246.884 5.004C246.412 5.012 246.024 5.088 245.72 5.232C245.424 5.376 245.272 5.56 245.264 5.784C245.264 5.968 245.372 6.116 245.588 6.228C245.804 6.332 246.152 6.416 246.632 6.48L247.988 6.66C249.236 6.812 250.144 7.1 250.712 7.524C251.288 7.94 251.576 8.528 251.576 9.288C251.576 9.896 251.384 10.428 251 10.884C250.624 11.332 250.088 11.676 249.392 11.916C248.696 12.156 247.888 12.276 246.968 12.276ZM252.897 3.408H260.493V5.4H255.669V6.768H260.013V8.484H255.669V10.008H260.613V12H252.897V3.408ZM267.161 12.252C266.049 12.252 265.077 12.068 264.245 11.7C263.421 11.332 262.785 10.808 262.337 10.128C261.889 9.44 261.665 8.632 261.665 7.704C261.665 6.784 261.877 5.98 262.301 5.292C262.725 4.604 263.329 4.076 264.113 3.708C264.897 3.332 265.817 3.144 266.873 3.144C267.697 3.144 268.441 3.276 269.105 3.54C269.777 3.796 270.333 4.164 270.773 4.644C271.213 5.116 271.505 5.672 271.649 6.312L269.045 6.9C268.917 6.42 268.665 6.044 268.289 5.772C267.921 5.5 267.465 5.364 266.921 5.364C266.185 5.364 265.601 5.576 265.169 6C264.745 6.416 264.533 6.984 264.533 7.704C264.533 8.416 264.773 8.984 265.253 9.408C265.741 9.832 266.393 10.044 267.209 10.044C267.873 10.044 268.433 9.88 268.889 9.552C269.345 9.224 269.629 8.784 269.741 8.232L272.393 8.64C272.281 9.368 271.989 10.004 271.517 10.548C271.053 11.092 270.445 11.512 269.693 11.808C268.949 12.104 268.105 12.252 267.161 12.252ZM278.394 12.252C277.394 12.252 276.534 12.1 275.814 11.796C275.102 11.484 274.554 11.036 274.17 10.452C273.794 9.86 273.606 9.152 273.606 8.328V3.408H276.474V8.208C276.474 8.784 276.646 9.232 276.99 9.552C277.334 9.864 277.806 10.02 278.406 10.02C279.006 10.02 279.474 9.864 279.81 9.552C280.154 9.232 280.326 8.78 280.326 8.196V3.408H283.182V8.328C283.182 9.152 282.99 9.86 282.606 10.452C282.23 11.036 281.682 11.484 280.962 11.796C280.25 12.1 279.394 12.252 278.394 12.252ZM292.775 12.216C292.255 12.216 291.815 12.084 291.455 11.82C291.095 11.556 290.811 11.204 290.603 10.764L290.183 9.816C290.063 9.576 289.903 9.388 289.703 9.252C289.503 9.116 289.283 9.048 289.043 9.048H287.687V12H284.819V3.408H290.675C291.787 3.408 292.651 3.648 293.267 4.128C293.891 4.608 294.203 5.28 294.203 6.144C294.203 6.752 294.011 7.268 293.627 7.692C293.243 8.108 292.703 8.396 292.007 8.556V8.568C292.335 8.68 292.595 8.944 292.787 9.36L293.195 10.188C293.331 10.452 293.527 10.584 293.783 10.584C293.879 10.584 293.979 10.56 294.083 10.512C294.195 10.464 294.287 10.4 294.359 10.32L294.839 11.544C294.607 11.744 294.299 11.904 293.915 12.024C293.539 12.152 293.159 12.216 292.775 12.216ZM290.003 7.32C290.419 7.32 290.743 7.232 290.975 7.056C291.215 6.872 291.335 6.62 291.335 6.3C291.335 5.98 291.219 5.728 290.987 5.544C290.755 5.36 290.431 5.268 290.015 5.268H287.687V7.32H290.003ZM295.983 3.408H298.851V12H295.983V3.408ZM302.997 5.616H300.117V3.408H308.745V5.616H305.865V12H302.997V5.616ZM313.002 9.072L309.414 3.408H312.426L314.43 6.936H314.442L316.326 3.408H319.374L315.858 9.072V12H313.002V9.072Z" fill="white"/>
<path d="M345.856 12.252C344.744 12.252 343.772 12.068 342.94 11.7C342.116 11.332 341.48 10.808 341.032 10.128C340.584 9.44 340.36 8.632 340.36 7.704C340.36 6.784 340.572 5.98 340.996 5.292C341.42 4.604 342.024 4.076 342.808 3.708C343.592 3.332 344.512 3.144 345.568 3.144C346.392 3.144 347.136 3.276 347.8 3.54C348.472 3.796 349.028 4.164 349.468 4.644C349.908 5.116 350.2 5.672 350.344 6.312L347.74 6.9C347.612 6.42 347.36 6.044 346.984 5.772C346.616 5.5 346.16 5.364 345.616 5.364C344.88 5.364 344.296 5.576 343.864 6C343.44 6.416 343.228 6.984 343.228 7.704C343.228 8.416 343.468 8.984 343.948 9.408C344.436 9.832 345.088 10.044 345.904 10.044C346.568 10.044 347.128 9.88 347.584 9.552C348.04 9.224 348.324 8.784 348.436 8.232L351.088 8.64C350.976 9.368 350.684 10.004 350.212 10.548C349.748 11.092 349.14 11.512 348.388 11.808C347.644 12.104 346.8 12.252 345.856 12.252ZM354.812 3.408H358.22L361.808 12H358.832L358.28 10.5H354.704L354.14 12H351.176L354.812 3.408ZM357.764 8.736L356.504 5.364H356.48L355.208 8.736H357.764ZM370.896 12.216C370.376 12.216 369.936 12.084 369.576 11.82C369.216 11.556 368.932 11.204 368.724 10.764L368.304 9.816C368.184 9.576 368.024 9.388 367.824 9.252C367.624 9.116 367.404 9.048 367.164 9.048H365.808V12H362.94V3.408H368.796C369.908 3.408 370.772 3.648 371.388 4.128C372.012 4.608 372.324 5.28 372.324 6.144C372.324 6.752 372.132 7.268 371.748 7.692C371.364 8.108 370.824 8.396 370.128 8.556V8.568C370.456 8.68 370.716 8.944 370.908 9.36L371.316 10.188C371.452 10.452 371.648 10.584 371.904 10.584C372 10.584 372.1 10.56 372.204 10.512C372.316 10.464 372.408 10.4 372.48 10.32L372.96 11.544C372.728 11.744 372.42 11.904 372.036 12.024C371.66 12.152 371.28 12.216 370.896 12.216ZM368.124 7.32C368.54 7.32 368.864 7.232 369.096 7.056C369.336 6.872 369.456 6.62 369.456 6.3C369.456 5.98 369.34 5.728 369.108 5.544C368.876 5.36 368.552 5.268 368.136 5.268H365.808V7.32H368.124ZM374.104 3.408H381.7V5.4H376.876V6.768H381.22V8.484H376.876V10.008H381.82V12H374.104V3.408ZM383.182 3.408H390.778V5.4H385.954V6.768H390.298V8.484H385.954V10.008H390.898V12H383.182V3.408ZM400.216 12.216C399.696 12.216 399.256 12.084 398.896 11.82C398.536 11.556 398.252 11.204 398.044 10.764L397.624 9.816C397.504 9.576 397.344 9.388 397.144 9.252C396.944 9.116 396.724 9.048 396.484 9.048H395.128V12H392.26V3.408H398.116C399.228 3.408 400.092 3.648 400.708 4.128C401.332 4.608 401.644 5.28 401.644 6.144C401.644 6.752 401.452 7.268 401.068 7.692C400.684 8.108 400.144 8.396 399.448 8.556V8.568C399.776 8.68 400.036 8.944 400.228 9.36L400.636 10.188C400.772 10.452 400.968 10.584 401.224 10.584C401.32 10.584 401.42 10.56 401.524 10.512C401.636 10.464 401.728 10.4 401.8 10.32L402.28 11.544C402.048 11.744 401.74 11.904 401.356 12.024C400.98 12.152 400.6 12.216 400.216 12.216ZM397.444 7.32C397.86 7.32 398.184 7.232 398.416 7.056C398.656 6.872 398.776 6.62 398.776 6.3C398.776 5.98 398.66 5.728 398.428 5.544C398.196 5.36 397.872 5.268 397.456 5.268H395.128V7.32H397.444ZM407.652 12.276C406.564 12.276 405.588 12.084 404.724 11.7C403.86 11.316 403.264 10.788 402.936 10.116L404.652 8.964C404.932 9.38 405.364 9.716 405.948 9.972C406.532 10.228 407.148 10.356 407.796 10.356C408.308 10.356 408.716 10.284 409.02 10.14C409.332 9.988 409.488 9.792 409.488 9.552C409.488 9.36 409.364 9.204 409.116 9.084C408.868 8.956 408.472 8.852 407.928 8.772L406.596 8.592C405.396 8.432 404.524 8.148 403.98 7.74C403.436 7.324 403.164 6.744 403.164 6C403.164 5.408 403.348 4.896 403.716 4.464C404.092 4.024 404.612 3.692 405.276 3.468C405.948 3.236 406.716 3.12 407.58 3.12C408.508 3.12 409.34 3.284 410.076 3.612C410.812 3.94 411.34 4.38 411.66 4.932L410.064 6.084C409.816 5.756 409.464 5.496 409.008 5.304C408.56 5.104 408.08 5.004 407.568 5.004C407.096 5.012 406.708 5.088 406.404 5.232C406.108 5.376 405.956 5.56 405.948 5.784C405.948 5.968 406.056 6.116 406.272 6.228C406.488 6.332 406.836 6.416 407.316 6.48L408.672 6.66C409.92 6.812 410.828 7.1 411.396 7.524C411.972 7.94 412.26 8.528 412.26 9.288C412.26 9.896 412.068 10.428 411.684 10.884C411.308 11.332 410.772 11.676 410.076 11.916C409.38 12.156 408.572 12.276 407.652 12.276Z" fill="white"/>
<path d="M433.612 3.408H439.228C440.364 3.408 441.252 3.676 441.892 4.212C442.532 4.74 442.852 5.472 442.852 6.408C442.844 7.336 442.516 8.064 441.868 8.592C441.228 9.112 440.34 9.372 439.204 9.372H436.48L436.468 12H433.612V3.408ZM438.472 7.56C438.952 7.56 439.32 7.456 439.576 7.248C439.84 7.032 439.972 6.736 439.972 6.36C439.972 6 439.84 5.72 439.576 5.52C439.312 5.32 438.944 5.22 438.472 5.22H436.468L436.48 7.56H438.472ZM452.146 12.216C451.626 12.216 451.186 12.084 450.826 11.82C450.466 11.556 450.182 11.204 449.974 10.764L449.554 9.816C449.434 9.576 449.274 9.388 449.074 9.252C448.874 9.116 448.654 9.048 448.414 9.048H447.058V12H444.19V3.408H450.046C451.158 3.408 452.022 3.648 452.638 4.128C453.262 4.608 453.574 5.28 453.574 6.144C453.574 6.752 453.382 7.268 452.998 7.692C452.614 8.108 452.074 8.396 451.378 8.556V8.568C451.706 8.68 451.966 8.944 452.158 9.36L452.566 10.188C452.702 10.452 452.898 10.584 453.154 10.584C453.25 10.584 453.35 10.56 453.454 10.512C453.566 10.464 453.658 10.4 453.73 10.32L454.21 11.544C453.978 11.744 453.67 11.904 453.286 12.024C452.91 12.152 452.53 12.216 452.146 12.216ZM449.374 7.32C449.79 7.32 450.114 7.232 450.346 7.056C450.586 6.872 450.706 6.62 450.706 6.3C450.706 5.98 450.59 5.728 450.358 5.544C450.126 5.36 449.802 5.268 449.386 5.268H447.058V7.32H449.374ZM455.354 3.408H462.95V5.4H458.126V6.768H462.47V8.484H458.126V10.008H463.07V12H455.354V3.408ZM468.788 12.276C467.7 12.276 466.724 12.084 465.86 11.7C464.996 11.316 464.4 10.788 464.072 10.116L465.788 8.964C466.068 9.38 466.5 9.716 467.084 9.972C467.668 10.228 468.284 10.356 468.932 10.356C469.444 10.356 469.852 10.284 470.156 10.14C470.468 9.988 470.624 9.792 470.624 9.552C470.624 9.36 470.5 9.204 470.252 9.084C470.004 8.956 469.608 8.852 469.064 8.772L467.732 8.592C466.532 8.432 465.66 8.148 465.116 7.74C464.572 7.324 464.3 6.744 464.3 6C464.3 5.408 464.484 4.896 464.852 4.464C465.228 4.024 465.748 3.692 466.412 3.468C467.084 3.236 467.852 3.12 468.716 3.12C469.644 3.12 470.476 3.284 471.212 3.612C471.948 3.94 472.476 4.38 472.796 4.932L471.2 6.084C470.952 5.756 470.6 5.496 470.144 5.304C469.696 5.104 469.216 5.004 468.704 5.004C468.232 5.012 467.844 5.088 467.54 5.232C467.244 5.376 467.092 5.56 467.084 5.784C467.084 5.968 467.192 6.116 467.408 6.228C467.624 6.332 467.972 6.416 468.452 6.48L469.808 6.66C471.056 6.812 471.964 7.1 472.532 7.524C473.108 7.94 473.396 8.528 473.396 9.288C473.396 9.896 473.204 10.428 472.82 10.884C472.444 11.332 471.908 11.676 471.212 11.916C470.516 12.156 469.708 12.276 468.788 12.276ZM479.073 12.276C477.985 12.276 477.009 12.084 476.145 11.7C475.281 11.316 474.685 10.788 474.357 10.116L476.073 8.964C476.353 9.38 476.785 9.716 477.369 9.972C477.953 10.228 478.569 10.356 479.217 10.356C479.729 10.356 480.137 10.284 480.441 10.14C480.753 9.988 480.909 9.792 480.909 9.552C480.909 9.36 480.785 9.204 480.537 9.084C480.289 8.956 479.893 8.852 479.349 8.772L478.017 8.592C476.817 8.432 475.945 8.148 475.401 7.74C474.857 7.324 474.585 6.744 474.585 6C474.585 5.408 474.769 4.896 475.137 4.464C475.513 4.024 476.033 3.692 476.697 3.468C477.369 3.236 478.137 3.12 479.001 3.12C479.929 3.12 480.761 3.284 481.497 3.612C482.233 3.94 482.761 4.38 483.081 4.932L481.485 6.084C481.237 5.756 480.885 5.496 480.429 5.304C479.981 5.104 479.501 5.004 478.989 5.004C478.517 5.012 478.129 5.088 477.825 5.232C477.529 5.376 477.377 5.56 477.369 5.784C477.369 5.968 477.477 6.116 477.693 6.228C477.909 6.332 478.257 6.416 478.737 6.48L480.093 6.66C481.341 6.812 482.249 7.1 482.817 7.524C483.393 7.94 483.681 8.528 483.681 9.288C483.681 9.896 483.489 10.428 483.105 10.884C482.729 11.332 482.193 11.676 481.497 11.916C480.801 12.156 479.993 12.276 479.073 12.276Z" fill="white"/>
<path d="M508.968 12.276C507.88 12.276 506.904 12.084 506.04 11.7C505.176 11.316 504.58 10.788 504.252 10.116L505.968 8.964C506.248 9.38 506.68 9.716 507.264 9.972C507.848 10.228 508.464 10.356 509.112 10.356C509.624 10.356 510.032 10.284 510.336 10.14C510.648 9.988 510.804 9.792 510.804 9.552C510.804 9.36 510.68 9.204 510.432 9.084C510.184 8.956 509.788 8.852 509.244 8.772L507.912 8.592C506.712 8.432 505.84 8.148 505.296 7.74C504.752 7.324 504.48 6.744 504.48 6C504.48 5.408 504.664 4.896 505.032 4.464C505.408 4.024 505.928 3.692 506.592 3.468C507.264 3.236 508.032 3.12 508.896 3.12C509.824 3.12 510.656 3.284 511.392 3.612C512.128 3.94 512.656 4.38 512.976 4.932L511.38 6.084C511.132 5.756 510.78 5.496 510.324 5.304C509.876 5.104 509.396 5.004 508.884 5.004C508.412 5.012 508.024 5.088 507.72 5.232C507.424 5.376 507.272 5.56 507.264 5.784C507.264 5.968 507.372 6.116 507.588 6.228C507.804 6.332 508.152 6.416 508.632 6.48L509.988 6.66C511.236 6.812 512.144 7.1 512.712 7.524C513.288 7.94 513.576 8.528 513.576 9.288C513.576 9.896 513.384 10.428 513 10.884C512.624 11.332 512.088 11.676 511.392 11.916C510.696 12.156 509.888 12.276 508.968 12.276ZM519.589 12.252C518.589 12.252 517.729 12.1 517.009 11.796C516.297 11.484 515.749 11.036 515.365 10.452C514.989 9.86 514.801 9.152 514.801 8.328V3.408H517.669V8.208C517.669 8.784 517.841 9.232 518.185 9.552C518.529 9.864 519.001 10.02 519.601 10.02C520.201 10.02 520.669 9.864 521.005 9.552C521.349 9.232 521.521 8.78 521.521 8.196V3.408H524.377V8.328C524.377 9.152 524.185 9.86 523.801 10.452C523.425 11.036 522.877 11.484 522.157 11.796C521.445 12.1 520.589 12.252 519.589 12.252ZM526.014 3.408H531.63C532.766 3.408 533.654 3.676 534.294 4.212C534.934 4.74 535.254 5.472 535.254 6.408C535.246 7.336 534.918 8.064 534.27 8.592C533.63 9.112 532.742 9.372 531.606 9.372H528.882L528.87 12H526.014V3.408ZM530.874 7.56C531.354 7.56 531.722 7.456 531.978 7.248C532.242 7.032 532.374 6.736 532.374 6.36C532.374 6 532.242 5.72 531.978 5.52C531.714 5.32 531.346 5.22 530.874 5.22H528.87L528.882 7.56H530.874ZM536.592 3.408H542.208C543.344 3.408 544.232 3.676 544.872 4.212C545.512 4.74 545.832 5.472 545.832 6.408C545.824 7.336 545.496 8.064 544.848 8.592C544.208 9.112 543.32 9.372 542.184 9.372H539.46L539.448 12H536.592V3.408ZM541.452 7.56C541.932 7.56 542.3 7.456 542.556 7.248C542.82 7.032 542.952 6.736 542.952 6.36C542.952 6 542.82 5.72 542.556 5.52C542.292 5.32 541.924 5.22 541.452 5.22H539.448L539.46 7.56H541.452ZM552.487 12.3C551.383 12.3 550.407 12.112 549.559 11.736C548.719 11.352 548.067 10.812 547.603 10.116C547.147 9.42 546.919 8.616 546.919 7.704C546.919 6.792 547.147 5.988 547.603 5.292C548.067 4.596 548.719 4.06 549.559 3.684C550.407 3.3 551.383 3.108 552.487 3.108C553.591 3.108 554.563 3.3 555.403 3.684C556.243 4.06 556.891 4.596 557.347 5.292C557.811 5.988 558.043 6.792 558.043 7.704C558.043 8.616 557.811 9.42 557.347 10.116C556.891 10.812 556.243 11.352 555.403 11.736C554.563 12.112 553.591 12.3 552.487 12.3ZM552.487 10.092C553.023 10.092 553.491 9.992 553.891 9.792C554.299 9.592 554.615 9.312 554.839 8.952C555.063 8.592 555.175 8.176 555.175 7.704C555.175 7.232 555.063 6.816 554.839 6.456C554.615 6.088 554.299 5.808 553.891 5.616C553.491 5.416 553.023 5.316 552.487 5.316C551.951 5.316 551.479 5.416 551.071 5.616C550.663 5.808 550.347 6.088 550.123 6.456C549.899 6.816 549.787 7.232 549.787 7.704C549.787 8.176 549.899 8.592 550.123 8.952C550.347 9.312 550.663 9.592 551.071 9.792C551.479 9.992 551.951 10.092 552.487 10.092ZM567.474 12.216C566.954 12.216 566.514 12.084 566.154 11.82C565.794 11.556 565.51 11.204 565.302 10.764L564.882 9.816C564.762 9.576 564.602 9.388 564.402 9.252C564.202 9.116 563.982 9.048 563.742 9.048H562.386V12H559.518V3.408H565.374C566.486 3.408 567.35 3.648 567.966 4.128C568.59 4.608 568.902 5.28 568.902 6.144C568.902 6.752 568.71 7.268 568.326 7.692C567.942 8.108 567.402 8.396 566.706 8.556V8.568C567.034 8.68 567.294 8.944 567.486 9.36L567.894 10.188C568.03 10.452 568.226 10.584 568.482 10.584C568.578 10.584 568.678 10.56 568.782 10.512C568.894 10.464 568.986 10.4 569.058 10.32L569.538 11.544C569.306 11.744 568.998 11.904 568.614 12.024C568.238 12.152 567.858 12.216 567.474 12.216ZM564.702 7.32C565.118 7.32 565.442 7.232 565.674 7.056C565.914 6.872 566.034 6.62 566.034 6.3C566.034 5.98 565.918 5.728 565.686 5.544C565.454 5.36 565.13 5.268 564.714 5.268H562.386V7.32H564.702ZM572.895 5.616H570.015V3.408H578.643V5.616H575.763V12H572.895V5.616Z" fill="white"/>
<path d="M603.968 12.276C602.88 12.276 601.904 12.084 601.04 11.7C600.176 11.316 599.58 10.788 599.252 10.116L600.968 8.964C601.248 9.38 601.68 9.716 602.264 9.972C602.848 10.228 603.464 10.356 604.112 10.356C604.624 10.356 605.032 10.284 605.336 10.14C605.648 9.988 605.804 9.792 605.804 9.552C605.804 9.36 605.68 9.204 605.432 9.084C605.184 8.956 604.788 8.852 604.244 8.772L602.912 8.592C601.712 8.432 600.84 8.148 600.296 7.74C599.752 7.324 599.48 6.744 599.48 6C599.48 5.408 599.664 4.896 600.032 4.464C600.408 4.024 600.928 3.692 601.592 3.468C602.264 3.236 603.032 3.12 603.896 3.12C604.824 3.12 605.656 3.284 606.392 3.612C607.128 3.94 607.656 4.38 607.976 4.932L606.38 6.084C606.132 5.756 605.78 5.496 605.324 5.304C604.876 5.104 604.396 5.004 603.884 5.004C603.412 5.012 603.024 5.088 602.72 5.232C602.424 5.376 602.272 5.56 602.264 5.784C602.264 5.968 602.372 6.116 602.588 6.228C602.804 6.332 603.152 6.416 603.632 6.48L604.988 6.66C606.236 6.812 607.144 7.1 607.712 7.524C608.288 7.94 608.576 8.528 608.576 9.288C608.576 9.896 608.384 10.428 608 10.884C607.624 11.332 607.088 11.676 606.392 11.916C605.696 12.156 604.888 12.276 603.968 12.276ZM611.876 5.616H608.996V3.408H617.624V5.616H614.744V12H611.876V5.616ZM620.828 3.408H624.236L627.824 12H624.848L624.296 10.5H620.72L620.156 12H617.192L620.828 3.408ZM623.78 8.736L622.52 5.364H622.496L621.224 8.736H623.78ZM630.266 5.616H627.386V3.408H636.014V5.616H633.134V12H630.266V5.616ZM641.976 12.252C640.976 12.252 640.116 12.1 639.396 11.796C638.684 11.484 638.136 11.036 637.752 10.452C637.376 9.86 637.188 9.152 637.188 8.328V3.408H640.056V8.208C640.056 8.784 640.228 9.232 640.572 9.552C640.916 9.864 641.388 10.02 641.988 10.02C642.588 10.02 643.056 9.864 643.392 9.552C643.736 9.232 643.908 8.78 643.908 8.196V3.408H646.764V8.328C646.764 9.152 646.572 9.86 646.188 10.452C645.812 11.036 645.264 11.484 644.544 11.796C643.832 12.1 642.976 12.252 641.976 12.252ZM652.757 12.276C651.669 12.276 650.693 12.084 649.829 11.7C648.965 11.316 648.369 10.788 648.041 10.116L649.757 8.964C650.037 9.38 650.469 9.716 651.053 9.972C651.637 10.228 652.253 10.356 652.901 10.356C653.413 10.356 653.821 10.284 654.125 10.14C654.437 9.988 654.593 9.792 654.593 9.552C654.593 9.36 654.469 9.204 654.221 9.084C653.973 8.956 653.577 8.852 653.033 8.772L651.701 8.592C650.501 8.432 649.629 8.148 649.085 7.74C648.541 7.324 648.269 6.744 648.269 6C648.269 5.408 648.453 4.896 648.821 4.464C649.197 4.024 649.717 3.692 650.381 3.468C651.053 3.236 651.821 3.12 652.685 3.12C653.613 3.12 654.445 3.284 655.181 3.612C655.917 3.94 656.445 4.38 656.765 4.932L655.169 6.084C654.921 5.756 654.569 5.496 654.113 5.304C653.665 5.104 653.185 5.004 652.673 5.004C652.201 5.012 651.813 5.088 651.509 5.232C651.213 5.376 651.061 5.56 651.053 5.784C651.053 5.968 651.161 6.116 651.377 6.228C651.593 6.332 651.941 6.416 652.421 6.48L653.777 6.66C655.025 6.812 655.933 7.1 656.501 7.524C657.077 7.94 657.365 8.528 657.365 9.288C657.365 9.896 657.173 10.428 656.789 10.884C656.413 11.332 655.877 11.676 655.181 11.916C654.485 12.156 653.677 12.276 652.757 12.276Z" fill="white"/>
<path d="M683.856 12.252C682.744 12.252 681.772 12.068 680.94 11.7C680.116 11.332 679.48 10.808 679.032 10.128C678.584 9.44 678.36 8.632 678.36 7.704C678.36 6.784 678.572 5.98 678.996 5.292C679.42 4.604 680.024 4.076 680.808 3.708C681.592 3.332 682.512 3.144 683.568 3.144C684.392 3.144 685.136 3.276 685.8 3.54C686.472 3.796 687.028 4.164 687.468 4.644C687.908 5.116 688.2 5.672 688.344 6.312L685.74 6.9C685.612 6.42 685.36 6.044 684.984 5.772C684.616 5.5 684.16 5.364 683.616 5.364C682.88 5.364 682.296 5.576 681.864 6C681.44 6.416 681.228 6.984 681.228 7.704C681.228 8.416 681.468 8.984 681.948 9.408C682.436 9.832 683.088 10.044 683.904 10.044C684.568 10.044 685.128 9.88 685.584 9.552C686.04 9.224 686.324 8.784 686.436 8.232L689.088 8.64C688.976 9.368 688.684 10.004 688.212 10.548C687.748 11.092 687.14 11.512 686.388 11.808C685.644 12.104 684.8 12.252 683.856 12.252ZM695.713 12.3C694.609 12.3 693.633 12.112 692.785 11.736C691.945 11.352 691.293 10.812 690.829 10.116C690.373 9.42 690.145 8.616 690.145 7.704C690.145 6.792 690.373 5.988 690.829 5.292C691.293 4.596 691.945 4.06 692.785 3.684C693.633 3.3 694.609 3.108 695.713 3.108C696.817 3.108 697.789 3.3 698.629 3.684C699.469 4.06 700.117 4.596 700.573 5.292C701.037 5.988 701.269 6.792 701.269 7.704C701.269 8.616 701.037 9.42 700.573 10.116C700.117 10.812 699.469 11.352 698.629 11.736C697.789 12.112 696.817 12.3 695.713 12.3ZM695.713 10.092C696.249 10.092 696.717 9.992 697.117 9.792C697.525 9.592 697.841 9.312 698.065 8.952C698.289 8.592 698.401 8.176 698.401 7.704C698.401 7.232 698.289 6.816 698.065 6.456C697.841 6.088 697.525 5.808 697.117 5.616C696.717 5.416 696.249 5.316 695.713 5.316C695.177 5.316 694.705 5.416 694.297 5.616C693.889 5.808 693.573 6.088 693.349 6.456C693.125 6.816 693.013 7.232 693.013 7.704C693.013 8.176 693.125 8.592 693.349 8.952C693.573 9.312 693.889 9.592 694.297 9.792C694.705 9.992 695.177 10.092 695.713 10.092ZM702.745 3.408H707.689C709.281 3.408 710.501 3.78 711.349 4.524C712.205 5.26 712.633 6.32 712.633 7.704C712.633 9.088 712.205 10.152 711.349 10.896C710.501 11.632 709.281 12 707.689 12H702.745V3.408ZM707.461 9.924C708.221 9.924 708.801 9.732 709.201 9.348C709.609 8.964 709.813 8.416 709.813 7.704C709.813 6.992 709.609 6.444 709.201 6.06C708.801 5.676 708.221 5.484 707.461 5.484H705.529V9.924H707.461ZM714.108 3.408H721.704V5.4H716.88V6.768H721.224V8.484H716.88V10.008H721.824V12H714.108V3.408ZM723.186 3.408H729.138C730.162 3.408 730.954 3.616 731.514 4.032C732.074 4.44 732.354 5.02 732.354 5.772C732.354 6.22 732.226 6.604 731.97 6.924C731.722 7.244 731.37 7.472 730.914 7.608V7.632C731.434 7.752 731.834 7.988 732.114 8.34C732.402 8.684 732.546 9.112 732.546 9.624C732.546 10.376 732.266 10.96 731.706 11.376C731.146 11.792 730.354 12 729.33 12H723.186V3.408ZM728.406 6.876C728.75 6.876 729.014 6.804 729.198 6.66C729.39 6.508 729.486 6.296 729.486 6.024C729.486 5.76 729.39 5.556 729.198 5.412C729.014 5.268 728.75 5.196 728.406 5.196H726.054V6.876H728.406ZM728.526 10.212C728.894 10.212 729.178 10.136 729.378 9.984C729.578 9.832 729.678 9.616 729.678 9.336C729.678 9.048 729.578 8.824 729.378 8.664C729.178 8.504 728.894 8.424 728.526 8.424H726.054V10.212H728.526ZM733.928 3.408H736.796V9.744H740.984V12H733.928V3.408ZM747.35 12.3C746.246 12.3 745.27 12.112 744.422 11.736C743.582 11.352 742.93 10.812 742.466 10.116C742.01 9.42 741.782 8.616 741.782 7.704C741.782 6.792 742.01 5.988 742.466 5.292C742.93 4.596 743.582 4.06 744.422 3.684C745.27 3.3 746.246 3.108 747.35 3.108C748.454 3.108 749.426 3.3 750.266 3.684C751.106 4.06 751.754 4.596 752.21 5.292C752.674 5.988 752.906 6.792 752.906 7.704C752.906 8.616 752.674 9.42 752.21 10.116C751.754 10.812 751.106 11.352 750.266 11.736C749.426 12.112 748.454 12.3 747.35 12.3ZM747.35 10.092C747.886 10.092 748.354 9.992 748.754 9.792C749.162 9.592 749.478 9.312 749.702 8.952C749.926 8.592 750.038 8.176 750.038 7.704C750.038 7.232 749.926 6.816 749.702 6.456C749.478 6.088 749.162 5.808 748.754 5.616C748.354 5.416 747.886 5.316 747.35 5.316C746.814 5.316 746.342 5.416 745.934 5.616C745.526 5.808 745.21 6.088 744.986 6.456C744.762 6.816 744.65 7.232 744.65 7.704C744.65 8.176 744.762 8.592 744.986 8.952C745.21 9.312 745.526 9.592 745.934 9.792C746.342 9.992 746.814 10.092 747.35 10.092ZM758.978 12.228C758.026 12.228 757.182 12.044 756.446 11.676C755.71 11.3 755.138 10.776 754.73 10.104C754.33 9.432 754.13 8.66 754.13 7.788C754.13 6.876 754.354 6.068 754.802 5.364C755.25 4.66 755.878 4.116 756.686 3.732C757.494 3.34 758.426 3.144 759.482 3.144C760.258 3.144 760.974 3.264 761.63 3.504C762.286 3.744 762.826 4.08 763.25 4.512C763.682 4.944 763.962 5.44 764.09 6L761.426 6.48C761.322 6.136 761.086 5.856 760.718 5.64C760.35 5.424 759.93 5.316 759.458 5.316C758.978 5.316 758.55 5.42 758.174 5.628C757.798 5.828 757.506 6.112 757.298 6.48C757.098 6.848 756.998 7.272 756.998 7.752C756.998 8.224 757.114 8.644 757.346 9.012C757.586 9.38 757.918 9.668 758.342 9.876C758.774 10.076 759.266 10.176 759.818 10.176C760.258 10.176 760.658 10.108 761.018 9.972C761.378 9.836 761.666 9.648 761.882 9.408C762.106 9.168 762.23 8.896 762.254 8.592H758.39V7.044H765.026V12H762.866L762.674 10.524H762.662C762.342 11.052 761.85 11.468 761.186 11.772C760.522 12.076 759.786 12.228 758.978 12.228Z" fill="white"/>
</g>
<defs>
<clipPath id="clip0_114_16">
<rect width="766" height="18" fill="white"/>
</clipPath>
</defs>
</svg>
