<svg width="51" height="10" viewBox="0 0 51 10" fill="none" xmlns="http://www.w3.org/2000/svg">
<path d="M0.612 0.408H6.228C7.364 0.408 8.252 0.676 8.892 1.212C9.532 1.74 9.852 2.472 9.852 3.408C9.844 4.336 9.516 5.064 8.868 5.592C8.228 6.112 7.34 6.372 6.204 6.372H3.48L3.468 9H0.612V0.408ZM5.472 4.56C5.952 4.56 6.32 4.456 6.576 4.248C6.84 4.032 6.972 3.736 6.972 3.36C6.972 3 6.84 2.72 6.576 2.52C6.312 2.32 5.944 2.22 5.472 2.22H3.468L3.48 4.56H5.472ZM19.1461 9.216C18.6261 9.216 18.1861 9.084 17.8261 8.82C17.4661 8.556 17.1821 8.204 16.9741 7.764L16.5541 6.816C16.4341 6.576 16.2741 6.388 16.0741 6.252C15.8741 6.116 15.6541 6.048 15.4141 6.048H14.0581V9H11.1901V0.408H17.0461C18.1581 0.408 19.0221 0.648 19.6381 1.128C20.2621 1.608 20.5741 2.28 20.5741 3.144C20.5741 3.752 20.3821 4.268 19.9981 4.692C19.6141 5.108 19.0741 5.396 18.3781 5.556V5.568C18.7061 5.68 18.9661 5.944 19.1581 6.36L19.5661 7.188C19.7021 7.452 19.8981 7.584 20.1541 7.584C20.2501 7.584 20.3501 7.56 20.4541 7.512C20.5661 7.464 20.6581 7.4 20.7301 7.32L21.2101 8.544C20.9781 8.744 20.6701 8.904 20.2861 9.024C19.9101 9.152 19.5301 9.216 19.1461 9.216ZM16.3741 4.32C16.7901 4.32 17.1141 4.232 17.3461 4.056C17.5861 3.872 17.7061 3.62 17.7061 3.3C17.7061 2.98 17.5901 2.728 17.3581 2.544C17.1261 2.36 16.8021 2.268 16.3861 2.268H14.0581V4.32H16.3741ZM22.3542 0.408H29.9502V2.4H25.1262V3.768H29.4702V5.484H25.1262V7.008H30.0702V9H22.3542V0.408ZM35.7883 9.276C34.7003 9.276 33.7243 9.084 32.8603 8.7C31.9963 8.316 31.4003 7.788 31.0723 7.116L32.7883 5.964C33.0683 6.38 33.5003 6.716 34.0843 6.972C34.6683 7.228 35.2843 7.356 35.9323 7.356C36.4443 7.356 36.8523 7.284 37.1563 7.14C37.4683 6.988 37.6243 6.792 37.6243 6.552C37.6243 6.36 37.5003 6.204 37.2523 6.084C37.0043 5.956 36.6083 5.852 36.0643 5.772L34.7323 5.592C33.5323 5.432 32.6603 5.148 32.1163 4.74C31.5723 4.324 31.3003 3.744 31.3003 3C31.3003 2.408 31.4843 1.896 31.8523 1.464C32.2283 1.024 32.7483 0.692 33.4123 0.468C34.0843 0.236 34.8523 0.12 35.7163 0.12C36.6443 0.12 37.4763 0.284 38.2123 0.611999C38.9483 0.939999 39.4763 1.38 39.7963 1.932L38.2003 3.084C37.9523 2.756 37.6003 2.496 37.1443 2.304C36.6963 2.104 36.2163 2.004 35.7043 2.004C35.2323 2.012 34.8443 2.088 34.5403 2.232C34.2443 2.376 34.0923 2.56 34.0843 2.784C34.0843 2.968 34.1923 3.116 34.4083 3.228C34.6243 3.332 34.9723 3.416 35.4523 3.48L36.8083 3.66C38.0563 3.812 38.9643 4.1 39.5323 4.524C40.1083 4.94 40.3963 5.528 40.3963 6.288C40.3963 6.896 40.2043 7.428 39.8203 7.884C39.4443 8.332 38.9083 8.676 38.2123 8.916C37.5163 9.156 36.7083 9.276 35.7883 9.276ZM46.0735 9.276C44.9855 9.276 44.0095 9.084 43.1455 8.7C42.2815 8.316 41.6855 7.788 41.3575 7.116L43.0735 5.964C43.3535 6.38 43.7855 6.716 44.3695 6.972C44.9535 7.228 45.5695 7.356 46.2175 7.356C46.7295 7.356 47.1375 7.284 47.4415 7.14C47.7535 6.988 47.9095 6.792 47.9095 6.552C47.9095 6.36 47.7855 6.204 47.5375 6.084C47.2895 5.956 46.8935 5.852 46.3495 5.772L45.0175 5.592C43.8175 5.432 42.9455 5.148 42.4015 4.74C41.8575 4.324 41.5855 3.744 41.5855 3C41.5855 2.408 41.7695 1.896 42.1375 1.464C42.5135 1.024 43.0335 0.692 43.6975 0.468C44.3695 0.236 45.1375 0.12 46.0015 0.12C46.9295 0.12 47.7615 0.284 48.4975 0.611999C49.2335 0.939999 49.7615 1.38 50.0815 1.932L48.4855 3.084C48.2375 2.756 47.8855 2.496 47.4295 2.304C46.9815 2.104 46.5015 2.004 45.9895 2.004C45.5175 2.012 45.1295 2.088 44.8255 2.232C44.5295 2.376 44.3775 2.56 44.3695 2.784C44.3695 2.968 44.4775 3.116 44.6935 3.228C44.9095 3.332 45.2575 3.416 45.7375 3.48L47.0935 3.66C48.3415 3.812 49.2495 4.1 49.8175 4.524C50.3935 4.94 50.6815 5.528 50.6815 6.288C50.6815 6.896 50.4895 7.428 50.1055 7.884C49.7295 8.332 49.1935 8.676 48.4975 8.916C47.8015 9.156 46.9935 9.276 46.0735 9.276Z" fill="white"/>
</svg>
