<svg width="78" height="10" viewBox="0 0 78 10" fill="none" xmlns="http://www.w3.org/2000/svg">
<path d="M4.968 9.276C3.88 9.276 2.904 9.084 2.04 8.7C1.176 8.316 0.58 7.788 0.252 7.116L1.968 5.964C2.248 6.38 2.68 6.716 3.264 6.972C3.848 7.228 4.464 7.356 5.112 7.356C5.624 7.356 6.032 7.284 6.336 7.14C6.648 6.988 6.804 6.792 6.804 6.552C6.804 6.36 6.68 6.204 6.432 6.084C6.184 5.956 5.788 5.852 5.244 5.772L3.912 5.592C2.712 5.432 1.84 5.148 1.296 4.74C0.752 4.324 0.48 3.744 0.48 3C0.48 2.408 0.664 1.896 1.032 1.464C1.408 1.024 1.928 0.692 2.592 0.468C3.264 0.236 4.032 0.12 4.896 0.12C5.824 0.12 6.656 0.284 7.392 0.611999C8.128 0.939999 8.656 1.38 8.976 1.932L7.38 3.084C7.132 2.756 6.78 2.496 6.324 2.304C5.876 2.104 5.396 2.004 4.884 2.004C4.412 2.012 4.024 2.088 3.72 2.232C3.424 2.376 3.272 2.56 3.264 2.784C3.264 2.968 3.372 3.116 3.588 3.228C3.804 3.332 4.152 3.416 4.632 3.48L5.988 3.66C7.236 3.812 8.144 4.1 8.712 4.524C9.288 4.94 9.576 5.528 9.576 6.288C9.576 6.896 9.384 7.428 9 7.884C8.624 8.332 8.088 8.676 7.392 8.916C6.696 9.156 5.888 9.276 4.968 9.276ZM10.8972 0.408H18.4932V2.4H13.6692V3.768H18.0132V5.484H13.6692V7.008H18.6132V9H10.8972V0.408ZM25.1607 9.252C24.0487 9.252 23.0767 9.068 22.2447 8.7C21.4207 8.332 20.7847 7.808 20.3367 7.128C19.8887 6.44 19.6647 5.632 19.6647 4.704C19.6647 3.784 19.8767 2.98 20.3007 2.292C20.7247 1.604 21.3287 1.076 22.1127 0.707999C22.8967 0.332 23.8167 0.144 24.8727 0.144C25.6967 0.144 26.4407 0.276 27.1047 0.539999C27.7767 0.796 28.3327 1.164 28.7727 1.644C29.2127 2.116 29.5047 2.672 29.6487 3.312L27.0447 3.9C26.9167 3.42 26.6647 3.044 26.2887 2.772C25.9207 2.5 25.4647 2.364 24.9207 2.364C24.1847 2.364 23.6007 2.576 23.1687 3C22.7447 3.416 22.5327 3.984 22.5327 4.704C22.5327 5.416 22.7727 5.984 23.2527 6.408C23.7407 6.832 24.3927 7.044 25.2087 7.044C25.8727 7.044 26.4327 6.88 26.8887 6.552C27.3447 6.224 27.6287 5.784 27.7407 5.232L30.3927 5.64C30.2807 6.368 29.9887 7.004 29.5167 7.548C29.0527 8.092 28.4447 8.512 27.6927 8.808C26.9487 9.104 26.1047 9.252 25.1607 9.252ZM36.3938 9.252C35.3938 9.252 34.5338 9.1 33.8138 8.796C33.1018 8.484 32.5538 8.036 32.1698 7.452C31.7938 6.86 31.6058 6.152 31.6058 5.328V0.408H34.4738V5.208C34.4738 5.784 34.6458 6.232 34.9898 6.552C35.3338 6.864 35.8058 7.02 36.4058 7.02C37.0058 7.02 37.4738 6.864 37.8098 6.552C38.1538 6.232 38.3258 5.78 38.3258 5.196V0.408H41.1818V5.328C41.1818 6.152 40.9898 6.86 40.6058 7.452C40.2298 8.036 39.6818 8.484 38.9618 8.796C38.2498 9.1 37.3938 9.252 36.3938 9.252ZM50.775 9.216C50.255 9.216 49.815 9.084 49.455 8.82C49.095 8.556 48.811 8.204 48.603 7.764L48.183 6.816C48.063 6.576 47.903 6.388 47.703 6.252C47.503 6.116 47.283 6.048 47.043 6.048H45.687V9H42.819V0.408H48.675C49.787 0.408 50.651 0.648 51.267 1.128C51.891 1.608 52.203 2.28 52.203 3.144C52.203 3.752 52.011 4.268 51.627 4.692C51.243 5.108 50.703 5.396 50.007 5.556V5.568C50.335 5.68 50.595 5.944 50.787 6.36L51.195 7.188C51.331 7.452 51.527 7.584 51.783 7.584C51.879 7.584 51.979 7.56 52.083 7.512C52.195 7.464 52.287 7.4 52.359 7.32L52.839 8.544C52.607 8.744 52.299 8.904 51.915 9.024C51.539 9.152 51.159 9.216 50.775 9.216ZM48.003 4.32C48.419 4.32 48.743 4.232 48.975 4.056C49.215 3.872 49.335 3.62 49.335 3.3C49.335 2.98 49.219 2.728 48.987 2.544C48.755 2.36 48.431 2.268 48.015 2.268H45.687V4.32H48.003ZM53.9831 0.408H56.8511V9H53.9831V0.408ZM60.9969 2.616H58.1169V0.408H66.7449V2.616H63.8649V9H60.9969V2.616ZM71.0023 6.072L67.4143 0.408H70.4263L72.4303 3.936H72.4423L74.3263 0.408H77.3743L73.8583 6.072V9H71.0023V6.072Z" fill="white"/>
</svg>
