<svg width="57" height="10" viewBox="0 0 57 10" fill="none" xmlns="http://www.w3.org/2000/svg">
<path d="M4.968 9.276C3.88 9.276 2.904 9.084 2.04 8.7C1.176 8.316 0.58 7.788 0.252 7.116L1.968 5.964C2.248 6.38 2.68 6.716 3.264 6.972C3.848 7.228 4.464 7.356 5.112 7.356C5.624 7.356 6.032 7.284 6.336 7.14C6.648 6.988 6.804 6.792 6.804 6.552C6.804 6.36 6.68 6.204 6.432 6.084C6.184 5.956 5.788 5.852 5.244 5.772L3.912 5.592C2.712 5.432 1.84 5.148 1.296 4.74C0.752 4.324 0.48 3.744 0.48 3C0.48 2.408 0.664 1.896 1.032 1.464C1.408 1.024 1.928 0.692 2.592 0.468C3.264 0.236 4.032 0.12 4.896 0.12C5.824 0.12 6.656 0.284 7.392 0.611999C8.128 0.939999 8.656 1.38 8.976 1.932L7.38 3.084C7.132 2.756 6.78 2.496 6.324 2.304C5.876 2.104 5.396 2.004 4.884 2.004C4.412 2.012 4.024 2.088 3.72 2.232C3.424 2.376 3.272 2.56 3.264 2.784C3.264 2.968 3.372 3.116 3.588 3.228C3.804 3.332 4.152 3.416 4.632 3.48L5.988 3.66C7.236 3.812 8.144 4.1 8.712 4.524C9.288 4.94 9.576 5.528 9.576 6.288C9.576 6.896 9.384 7.428 9 7.884C8.624 8.332 8.088 8.676 7.392 8.916C6.696 9.156 5.888 9.276 4.968 9.276ZM10.8972 0.408H13.7652V9H10.8972V0.408ZM20.083 9.228C19.131 9.228 18.287 9.044 17.551 8.676C16.815 8.3 16.243 7.776 15.835 7.104C15.435 6.432 15.235 5.66 15.235 4.788C15.235 3.876 15.459 3.068 15.907 2.364C16.355 1.66 16.983 1.116 17.791 0.732C18.599 0.34 19.531 0.144 20.587 0.144C21.363 0.144 22.079 0.264 22.735 0.504C23.391 0.744 23.931 1.08 24.355 1.512C24.787 1.944 25.067 2.44 25.195 3L22.531 3.48C22.427 3.136 22.191 2.856 21.823 2.64C21.455 2.424 21.035 2.316 20.563 2.316C20.083 2.316 19.655 2.42 19.279 2.628C18.903 2.828 18.611 3.112 18.403 3.48C18.203 3.848 18.103 4.272 18.103 4.752C18.103 5.224 18.219 5.644 18.451 6.012C18.691 6.38 19.023 6.668 19.447 6.876C19.879 7.076 20.371 7.176 20.923 7.176C21.363 7.176 21.763 7.108 22.123 6.972C22.483 6.836 22.771 6.648 22.987 6.408C23.211 6.168 23.335 5.896 23.359 5.592H19.495V4.044H26.131V9H23.971L23.779 7.524H23.767C23.447 8.052 22.955 8.468 22.291 8.772C21.627 9.076 20.891 9.228 20.083 9.228ZM27.6823 0.408H31.0423L34.8703 5.964H34.8823V0.408H37.5823V9H34.2223L30.3943 3.408H30.3823V9H27.6823V0.408ZM42.3698 0.408H45.2378V9H42.3698V0.408ZM46.9597 0.408H50.3197L54.1477 5.964H54.1597V0.408H56.8597V9H53.4997L49.6717 3.408H49.6597V9H46.9597V0.408Z" fill="white"/>
</svg>
