<svg width="59" height="10" viewBox="0 0 59 10" fill="none" xmlns="http://www.w3.org/2000/svg">
<path d="M4.968 9.276C3.88 9.276 2.904 9.084 2.04 8.7C1.176 8.316 0.58 7.788 0.252 7.116L1.968 5.964C2.248 6.38 2.68 6.716 3.264 6.972C3.848 7.228 4.464 7.356 5.112 7.356C5.624 7.356 6.032 7.284 6.336 7.14C6.648 6.988 6.804 6.792 6.804 6.552C6.804 6.36 6.68 6.204 6.432 6.084C6.184 5.956 5.788 5.852 5.244 5.772L3.912 5.592C2.712 5.432 1.84 5.148 1.296 4.74C0.752 4.324 0.48 3.744 0.48 3C0.48 2.408 0.664 1.896 1.032 1.464C1.408 1.024 1.928 0.692 2.592 0.468C3.264 0.236 4.032 0.12 4.896 0.12C5.824 0.12 6.656 0.284 7.392 0.611999C8.128 0.939999 8.656 1.38 8.976 1.932L7.38 3.084C7.132 2.756 6.78 2.496 6.324 2.304C5.876 2.104 5.396 2.004 4.884 2.004C4.412 2.012 4.024 2.088 3.72 2.232C3.424 2.376 3.272 2.56 3.264 2.784C3.264 2.968 3.372 3.116 3.588 3.228C3.804 3.332 4.152 3.416 4.632 3.48L5.988 3.66C7.236 3.812 8.144 4.1 8.712 4.524C9.288 4.94 9.576 5.528 9.576 6.288C9.576 6.896 9.384 7.428 9 7.884C8.624 8.332 8.088 8.676 7.392 8.916C6.696 9.156 5.888 9.276 4.968 9.276ZM12.8758 2.616H9.99584V0.408H18.6238V2.616H15.7438V9H12.8758V2.616ZM21.828 0.408H25.236L28.824 9H25.848L25.296 7.5H21.72L21.156 9H18.192L21.828 0.408ZM24.78 5.736L23.52 2.364H23.496L22.224 5.736H24.78ZM31.2665 2.616H28.3865V0.408H37.0145V2.616H34.1345V9H31.2665V2.616ZM42.9759 9.252C41.9759 9.252 41.1159 9.1 40.3959 8.796C39.6839 8.484 39.1359 8.036 38.7519 7.452C38.3759 6.86 38.1879 6.152 38.1879 5.328V0.408H41.0559V5.208C41.0559 5.784 41.2279 6.232 41.5719 6.552C41.9159 6.864 42.3879 7.02 42.9879 7.02C43.5879 7.02 44.0559 6.864 44.3919 6.552C44.7359 6.232 44.9079 5.78 44.9079 5.196V0.408H47.7639V5.328C47.7639 6.152 47.5719 6.86 47.1879 7.452C46.8119 8.036 46.2639 8.484 45.5439 8.796C44.8319 9.1 43.9759 9.252 42.9759 9.252ZM53.7571 9.276C52.6691 9.276 51.6931 9.084 50.8291 8.7C49.9651 8.316 49.3691 7.788 49.0411 7.116L50.7571 5.964C51.0371 6.38 51.4691 6.716 52.0531 6.972C52.6371 7.228 53.2531 7.356 53.9011 7.356C54.4131 7.356 54.8211 7.284 55.1251 7.14C55.4371 6.988 55.5931 6.792 55.5931 6.552C55.5931 6.36 55.4691 6.204 55.2211 6.084C54.9731 5.956 54.5771 5.852 54.0331 5.772L52.7011 5.592C51.5011 5.432 50.6291 5.148 50.0851 4.74C49.5411 4.324 49.2691 3.744 49.2691 3C49.2691 2.408 49.4531 1.896 49.8211 1.464C50.1971 1.024 50.7171 0.692 51.3811 0.468C52.0531 0.236 52.8211 0.12 53.6851 0.12C54.6131 0.12 55.4451 0.284 56.1811 0.611999C56.9171 0.939999 57.4451 1.38 57.7651 1.932L56.1691 3.084C55.9211 2.756 55.5691 2.496 55.1131 2.304C54.6651 2.104 54.1851 2.004 53.6731 2.004C53.2011 2.012 52.8131 2.088 52.5091 2.232C52.2131 2.376 52.0611 2.56 52.0531 2.784C52.0531 2.968 52.1611 3.116 52.3771 3.228C52.5931 3.332 52.9411 3.416 53.4211 3.48L54.7771 3.66C56.0251 3.812 56.9331 4.1 57.5011 4.524C58.0771 4.94 58.3651 5.528 58.3651 6.288C58.3651 6.896 58.1731 7.428 57.7891 7.884C57.4131 8.332 56.8771 8.676 56.1811 8.916C55.4851 9.156 54.6771 9.276 53.7571 9.276Z" fill="white"/>
</svg>
