<svg width="75" height="10" viewBox="0 0 75 10" fill="none" xmlns="http://www.w3.org/2000/svg">
<path d="M4.968 9.276C3.88 9.276 2.904 9.084 2.04 8.7C1.176 8.316 0.58 7.788 0.252 7.116L1.968 5.964C2.248 6.38 2.68 6.716 3.264 6.972C3.848 7.228 4.464 7.356 5.112 7.356C5.624 7.356 6.032 7.284 6.336 7.14C6.648 6.988 6.804 6.792 6.804 6.552C6.804 6.36 6.68 6.204 6.432 6.084C6.184 5.956 5.788 5.852 5.244 5.772L3.912 5.592C2.712 5.432 1.84 5.148 1.296 4.74C0.752 4.324 0.48 3.744 0.48 3C0.48 2.408 0.664 1.896 1.032 1.464C1.408 1.024 1.928 0.692 2.592 0.468C3.264 0.236 4.032 0.12 4.896 0.12C5.824 0.12 6.656 0.284 7.392 0.611999C8.128 0.939999 8.656 1.38 8.976 1.932L7.38 3.084C7.132 2.756 6.78 2.496 6.324 2.304C5.876 2.104 5.396 2.004 4.884 2.004C4.412 2.012 4.024 2.088 3.72 2.232C3.424 2.376 3.272 2.56 3.264 2.784C3.264 2.968 3.372 3.116 3.588 3.228C3.804 3.332 4.152 3.416 4.632 3.48L5.988 3.66C7.236 3.812 8.144 4.1 8.712 4.524C9.288 4.94 9.576 5.528 9.576 6.288C9.576 6.896 9.384 7.428 9 7.884C8.624 8.332 8.088 8.676 7.392 8.916C6.696 9.156 5.888 9.276 4.968 9.276ZM15.5892 9.252C14.5892 9.252 13.7292 9.1 13.0092 8.796C12.2972 8.484 11.7492 8.036 11.3652 7.452C10.9892 6.86 10.8012 6.152 10.8012 5.328V0.408H13.6692V5.208C13.6692 5.784 13.8412 6.232 14.1852 6.552C14.5292 6.864 15.0012 7.02 15.6012 7.02C16.2012 7.02 16.6692 6.864 17.0052 6.552C17.3492 6.232 17.5212 5.78 17.5212 5.196V0.408H20.3772V5.328C20.3772 6.152 20.1852 6.86 19.8012 7.452C19.4252 8.036 18.8772 8.484 18.1572 8.796C17.4452 9.1 16.5892 9.252 15.5892 9.252ZM22.0143 0.408H27.6303C28.7663 0.408 29.6543 0.676 30.2943 1.212C30.9343 1.74 31.2543 2.472 31.2543 3.408C31.2463 4.336 30.9183 5.064 30.2703 5.592C29.6303 6.112 28.7423 6.372 27.6063 6.372H24.8823L24.8703 9H22.0143V0.408ZM26.8743 4.56C27.3543 4.56 27.7223 4.456 27.9783 4.248C28.2423 4.032 28.3743 3.736 28.3743 3.36C28.3743 3 28.2423 2.72 27.9783 2.52C27.7143 2.32 27.3463 2.22 26.8743 2.22H24.8703L24.8823 4.56H26.8743ZM32.5925 0.408H38.2085C39.3445 0.408 40.2325 0.676 40.8725 1.212C41.5125 1.74 41.8325 2.472 41.8325 3.408C41.8245 4.336 41.4965 5.064 40.8485 5.592C40.2085 6.112 39.3205 6.372 38.1845 6.372H35.4605L35.4485 9H32.5925V0.408ZM37.4525 4.56C37.9325 4.56 38.3005 4.456 38.5565 4.248C38.8205 4.032 38.9525 3.736 38.9525 3.36C38.9525 3 38.8205 2.72 38.5565 2.52C38.2925 2.32 37.9245 2.22 37.4525 2.22H35.4485L35.4605 4.56H37.4525ZM48.4866 9.3C47.3826 9.3 46.4066 9.112 45.5586 8.736C44.7186 8.352 44.0666 7.812 43.6026 7.116C43.1466 6.42 42.9186 5.616 42.9186 4.704C42.9186 3.792 43.1466 2.988 43.6026 2.292C44.0666 1.596 44.7186 1.06 45.5586 0.684C46.4066 0.299999 47.3826 0.107999 48.4866 0.107999C49.5906 0.107999 50.5626 0.299999 51.4026 0.684C52.2426 1.06 52.8906 1.596 53.3466 2.292C53.8106 2.988 54.0426 3.792 54.0426 4.704C54.0426 5.616 53.8106 6.42 53.3466 7.116C52.8906 7.812 52.2426 8.352 51.4026 8.736C50.5626 9.112 49.5906 9.3 48.4866 9.3ZM48.4866 7.092C49.0226 7.092 49.4906 6.992 49.8906 6.792C50.2986 6.592 50.6146 6.312 50.8386 5.952C51.0626 5.592 51.1746 5.176 51.1746 4.704C51.1746 4.232 51.0626 3.816 50.8386 3.456C50.6146 3.088 50.2986 2.808 49.8906 2.616C49.4906 2.416 49.0226 2.316 48.4866 2.316C47.9506 2.316 47.4786 2.416 47.0706 2.616C46.6626 2.808 46.3466 3.088 46.1226 3.456C45.8986 3.816 45.7866 4.232 45.7866 4.704C45.7866 5.176 45.8986 5.592 46.1226 5.952C46.3466 6.312 46.6626 6.592 47.0706 6.792C47.4786 6.992 47.9506 7.092 48.4866 7.092ZM63.4743 9.216C62.9543 9.216 62.5143 9.084 62.1543 8.82C61.7943 8.556 61.5103 8.204 61.3023 7.764L60.8823 6.816C60.7623 6.576 60.6023 6.388 60.4023 6.252C60.2023 6.116 59.9823 6.048 59.7423 6.048H58.3863V9H55.5183V0.408H61.3743C62.4863 0.408 63.3503 0.648 63.9663 1.128C64.5903 1.608 64.9023 2.28 64.9023 3.144C64.9023 3.752 64.7103 4.268 64.3263 4.692C63.9423 5.108 63.4023 5.396 62.7063 5.556V5.568C63.0343 5.68 63.2943 5.944 63.4863 6.36L63.8943 7.188C64.0303 7.452 64.2263 7.584 64.4823 7.584C64.5783 7.584 64.6783 7.56 64.7823 7.512C64.8943 7.464 64.9863 7.4 65.0583 7.32L65.5383 8.544C65.3063 8.744 64.9983 8.904 64.6143 9.024C64.2383 9.152 63.8583 9.216 63.4743 9.216ZM60.7023 4.32C61.1183 4.32 61.4423 4.232 61.6743 4.056C61.9143 3.872 62.0343 3.62 62.0343 3.3C62.0343 2.98 61.9183 2.728 61.6862 2.544C61.4543 2.36 61.1303 2.268 60.7143 2.268H58.3863V4.32H60.7023ZM68.8954 2.616H66.0154V0.408H74.6434V2.616H71.7634V9H68.8954V2.616Z" fill="white"/>
</svg>
